<svg width="1280" height="1280" xmlns="http://www.w3.org/2000/svg"><g id="background"><rect width="1280" height="1280" rx="188" fill="#152521"/></g><path id="logosbrand" d="m802.6 1056.6c-29.204 0-54.292-6.86-75.264-20.678-21.07-13.818-36.946-35.476-47.824-65.072-6.762-19.992-11.564-44.394-14.21-73.402-2.744-28.91-4.41-59.29-5.096-90.944-.686-32.34-1.372-63.7-2.058-94.08 0-8.232-2.058-12.446-6.076-12.446-3.332 0-6.762 2.744-10.192 8.232-12.838 24.108-28.126 51.646-45.766 82.712-16.954 30.968-33.908 62.034-50.862 93.002-16.954 30.968-32.242 58.898-45.766 83.692-12.838 24.108-22.05 41.65-27.44 52.724-6.762 15.19-17.64 24.794-32.536 28.91-14.21 4.802-32.242 5.88-53.9 3.038-21.756-2.744-36.946-11.368-45.766-25.872-9.506-15.19-7.84-30.968 5.096-47.53 8.82-11.074 21.364-27.538 37.632-49.588 16.268-22.736 34.594-48.216 54.88-76.44 20.384-28.91 41.062-58.506 62.034-88.886 21.756-30.968 42.042-60.662 61.054-88.886 19.012-28.91 34.888-54.096 47.824-75.46 13.622-22.05 22.344-38.22 26.46-48.608 4.116-9.604 8.428-20.286 13.23-32.046 4.704-11.662 7.154-23.716 7.154-36.162 0-45.472-4.41-79.576-13.23-102.312-8.134-23.422-19.306-38.906-33.614-46.55-13.622-8.232-28.518-12.446-44.786-12.446-12.25 0-25.382 2.45-39.69 7.252-13.622 4.802-22.344 9.31-26.46 13.426-7.448 7.546-14.602 8.918-21.364 4.116-6.762-4.802-8.82-12.74-6.076-23.716 7.448-25.48 21.07-48.216 40.67-68.208 19.796-20.678 47.236-30.968 82.516-30.968 37.338 0 66.836 10.682 88.494 32.046 21.756 21.364 37.338 55.468 46.844 102.312 9.506 46.844 14.21 108.878 14.21 186.004 0 90.944 1.372 163.66 4.116 218.05 2.744 54.39 7.154 95.452 13.23 122.99 6.076 26.852 14.602 44.786 25.382 53.802 11.564 8.918 25.774 13.426 42.728 13.426s31.556-3.43 45.766-10.29c14.896-6.86 27.832-15.876 38.71-26.852 4.704-5.488 10.192-7.546 16.268-6.174 6.076 1.372 10.878 5.194 14.21 11.368 4.116 5.488 4.116 12.74 0 21.756-14.21 31.752-33.222 58.898-56.938 81.634-23.03 22.05-50.862 33.124-83.398 33.124h0z" fill="#f5f5ef"/><g id="hat" transform="matrix(1.1 0 0 1.1 415 110)"><path d="m7.62 192.12c30.39-2.97 235.8-81.72 264.35-102.67" fill="none" id="shadow" stroke="#152521" stroke-linecap="square" stroke-width="20"/><path d="m.56 187.46c-.56-3.43-.56-3.43 0-7 3.33-3.82 6.99-6.49 11.25-9.18.89-.57.89-.57 1.8-1.14 5.02-3.15 10.1-6.21 15.2-9.24.74-.44 1.48-.88 2.24-1.34 5.27-3.1 5.27-3.1 7.51-3.1-.5307-6.2333-4.03-47.25-4.22-49.21-1.5-15.76-2.93-31.51-3.03-47.35-.02-.82-.04-1.65-.06-2.5-.05-6.7 1.62-11.48 6.31-16.43 9.38-8.59 22.19-8.29 34.19-9 2.55-.16 5.11-.33 7.66-.5 1.58-.11 3.15-.21 4.73-.3 17.29-1.12 28.3-10.24 39.98-22.27 8.77-8.9 18.13-14.32 30.9-10.59 6.65 3.16 11.03 8.68 15.48 14.41.46.6 12.68 16.79 18.22 24.35 3.15 4.31 15.79 21.46 18.24 24.44 1.14 1.47 14.25 19.27 16.6 20.95-2.31-2.41-.34-.34 0 0 8.13.66 16.13-1.63 24.04-3.22 15.7-3.05 15.7-3.05 21.4.16 3.54 2.85 3.54 2.85 3.88 5.75-.4 4.23-1.21 6.65-4.32 9.31-2.32 1.48-13.62 6.9-16 8-.81.38-1.62.76-2.46 1.15-13.42 6.22-54.79 23.93-109.87 44.99-46.51 17.79-92.17 33.39-92.95 33.66-31.95 11.1-31.95 11.1-42.72 9.2-2.69-1.56-2.69-1.56-4-4" fill="#597376" id="body"/><path d="m38 144.16c91.4-25.86 98.5-29.56 177.5-70.76" fill="none" id="strip" stroke="#152521" stroke-linecap="square" stroke-width="20"/></g></svg>