<svg width="1280" height="1280" xmlns="http://www.w3.org/2000/svg"><g id="background"><rect width="1280" height="1280" rx="188" fill="#152521"/><rect x="64" y="64" width="1152" height="1152" rx="156" stroke-width="10" fill-opacity="0" stroke="#475651"/></g><path d="m983 700c1.27 0 2.53 0 3.82 0 12.2.08 23.08 1.02 34.56 5.27.99.36 2 .72 3.02 1.1 14.68 5.46 26.77 12.18 38.67 22.42.82.62 1.63 1.23 2.47 1.87 17.69 13.74 29.09 35.68 35.57 56.54.35 1.08.72 2.16 1.09 3.28 3.13 10.16 3.51 19.59 3.32 30.17-.01 1.59-.01 3.17-.02 4.8-.29 32.55-11.32 57.13-32.92 81.3-.75.86-1.49 1.71-2.27 2.6 0 0 0 0-9.552161 8.967805 2.775195 3.929188 5.405195 7.909188 7.935195 12.009188 3.22 5.02 3.22 5.02 8.24 7.88 1.87.33 3.74.65 5.6.98 5.18 1.66 7.77 6.11 10.83 10.37 1.3 1.69 2.62 3.41 3.92 5.1 1.34 1.78 2.65 3.56 3.97 5.34.71.95 1.41 1.89 2.15 2.87 1.42 1.91 2.85 3.83 4.28 5.75 6.78 9.13 13.61 18.21 20.58 27.21 8.22 10.63 16.19 21.46 24.11 32.34 1.37 1.88 2.76 3.74 4.17 5.59 4.93 6.56 5.78 9.64 4.74 17.68-2.81 5.87-6.34 8.87-11.63 12.57-1.31.94-2.63 1.86-3.99 2.83-5.47 3.66-10.43 4.91-16.98 3.62-5.04-3.38-8.15-6.95-11.37-12.05-.94-1.44-1.86-2.86-2.81-4.34-.53-.83-1.08-1.66-1.62-2.52-3.84-5.85-7.84-11.64-11.79-17.43-.88-1.3-1.78-2.59-2.69-3.94-8.86-12.97-17.76-25.93-26.71-38.86-.66-.97-1.33-1.93-2.01-2.92-1.26-1.82-2.51-3.65-3.78-5.45-1.74-2.52-3.43-5.06-5.15-7.58-.63-.91-1.27-1.84-1.92-2.77-3.71-5.55-5.57-9.15-5.29-15.99-.31-8.87-3.94-13.68-9.48-20.39-2.32-2.97-2.32-2.97-3.59817-4.641655-4.780401 2.396808-11.854864 7.944662-35.804864 11.854662-.95.18-1.91.35-2.88.53-30.16 4.76-62.05-3.14-86.78-20.91-6.29-5.02-12.04-10.57-17.67-16.3-.93-.94-1.87-1.87-2.83-2.84-11.01-11.78-17.87-25.58-23.57-40.47-.7-1.8-.7-1.8-1.42-3.67-10.24-27.79-7.1-61.86 5.07-88.61 15.57-32.11 40.71-54.76 74.2-66.66 11.48-3.26 22.29-4.66 34.22-4.5zm-65.29 57.32c-.85.81-1.7 1.63-2.57 2.47-16.65 17.29-24.15 41.26-23.88 64.81.98 27.32 13.34 51.03 33.07 69.59 14.79 12.74 33.36 21.53 53.16 22.07 1.27.08 2.56.16 3.89.26 24.44.95 47.63-8.14 66.03-24.11 15.5-14.96 23.66-31.62 29.25-52.22.23-.86.47-1.73.72-2.61 5.17-23-1.69-46.75-13.91-66.24-12.33-18.48-28.82-30.22-49.3-38.48-1.73-.7-1.73-.7-3.5-1.41-33.39-11.19-69.21 1.81-92.96 25.87z" id="magnifier" fill="#597376" transform="matrix(.832357 0 0 .832357-395.09-163.642)"/><path id="logosbrand" d="m802.6 1056.6c-29.204 0-54.292-6.86-75.264-20.678-21.07-13.818-36.946-35.476-47.824-65.072-6.762-19.992-11.564-44.394-14.21-73.402-2.744-28.91-4.41-59.29-5.096-90.944-.686-32.34-1.372-63.7-2.058-94.08 0-8.232-2.058-12.446-6.076-12.446-3.332 0-6.762 2.744-10.192 8.232-12.838 24.108-28.126 51.646-45.766 82.712-16.954 30.968-33.908 62.034-50.862 93.002-16.954 30.968-32.242 58.898-45.766 83.692-12.838 24.108-22.05 41.65-27.44 52.724-6.762 15.19-17.64 24.794-32.536 28.91-14.21 4.802-32.242 5.88-53.9 3.038-21.756-2.744-36.946-11.368-45.766-25.872-9.506-15.19-7.84-30.968 5.096-47.53 8.82-11.074 21.364-27.538 37.632-49.588 16.268-22.736 34.594-48.216 54.88-76.44 20.384-28.91 41.062-58.506 62.034-88.886 21.756-30.968 42.042-60.662 61.054-88.886 19.012-28.91 34.888-54.096 47.824-75.46 13.622-22.05 22.344-38.22 26.46-48.608 4.116-9.604 8.428-20.286 13.23-32.046 4.704-11.662 7.154-23.716 7.154-36.162 0-45.472-4.41-79.576-13.23-102.312-8.134-23.422-19.306-38.906-33.614-46.55-13.622-8.232-28.518-12.446-44.786-12.446-12.25 0-25.382 2.45-39.69 7.252-13.622 4.802-22.344 9.31-26.46 13.426-7.448 7.546-14.602 8.918-21.364 4.116-6.762-4.802-8.82-12.74-6.076-23.716 7.448-25.48 21.07-48.216 40.67-68.208 19.796-20.678 47.236-30.968 82.516-30.968 37.338 0 66.836 10.682 88.494 32.046 21.756 21.364 37.338 55.468 46.844 102.312 9.506 46.844 14.21 108.878 14.21 186.004 0 90.944 1.372 163.66 4.116 218.05 2.744 54.39 7.154 95.452 13.23 122.99 6.076 26.852 14.602 44.786 25.382 53.802 11.564 8.918 25.774 13.426 42.728 13.426s31.556-3.43 45.766-10.29c14.896-6.86 27.832-15.876 38.71-26.852 4.704-5.488 10.192-7.546 16.268-6.174 6.076 1.372 10.878 5.194 14.21 11.368 4.116 5.488 4.116 12.74 0 21.756-14.21 31.752-33.222 58.898-56.938 81.634-23.03 22.05-50.862 33.124-83.398 33.124h0z" fill="#f5f5ef"/><g id="hat" transform="matrix(1 0 0 1 0 0)"><path d="m441 318c28.53-8.83 216.69-76.31 255.3-96.8" fill="none" id="shadow" stroke="#152521" stroke-linecap="square" stroke-width="20"/><path d="m649 208c-.75.65 1.22 2.72 1.56 3.06 8.13.66 16.13-1.63 24.04-3.22 15.7-3.05 15.7-3.05 21.4.16 3.54 2.85 3.54 2.85 3.88 5.75-.4 4.23-1.21 6.65-4.32 9.31-2.32 1.48-13.62 6.9-16 8-.81.38-1.62.76-2.46 1.15-13.42 6.22-54.79 23.93-109.87 44.99-46.51 17.79-92.17 33.39-92.95 33.66-31.95 11.1-31.95 11.1-42.72 9.2-2.69-1.56-2.69-1.56-4-4-.56-3.43-.56-3.43 0-7 3.33-3.82 6.99-6.49 11.25-9.18.89-.57.89-.57 1.8-1.14 5.02-3.15 10.1-6.21 15.2-9.24.74-.44 1.48-.88 2.24-1.34 5.27-3.1 5.27-3.1 7.51-3.1-.530708-6.23329-4.03-47.25-4.22-49.21-1.5-15.76-2.93-31.51-3.03-47.35-.02-.82-.04-1.65-.06-2.5-.05-6.7 1.62-11.48 6.31-16.43 9.38-8.59 22.19-8.29 34.19-9 2.55-.16 5.11-.33 7.66-.5 1.58-.11 3.15-.21 4.73-.3 17.29-1.12 28.3-10.24 39.98-22.27 8.77-8.9 18.13-14.32 30.9-10.59 6.65 3.16 11.03 8.68 15.48 14.41.46.6 12.68 16.79 18.22 24.35 3.15 4.31 15.79 21.46 18.24 24.44 1.14 1.47 14.25 19.27 16.6 20.95z" fill="#597376" id="body"/><path d="m456 267c95.7-31.78 105.76-34.43 186.48-73.87" fill="none" id="strip" stroke="#152521" stroke-linecap="square" stroke-width="20"/></g></svg>